<svg width="117" height="42" viewBox="0 0 117 42" fill="none" xmlns="http://www.w3.org/2000/svg">
<path fill-rule="evenodd" clip-rule="evenodd" d="M0 0.5L4.93126 13.9334H16.5335L11.3668 0.5H0ZM116.768 0.5H94.5508V8.76673H100.234V13.9334H111.084V8.76673H116.768V0.5ZM94.5508 41.5C94.5508 41.5 116.768 41.445 116.768 41.317V33.5669H111.084V27.8836H100.234V33.5669H94.5508V41.5ZM25.3169 41.3522L14.9835 41.317L10.0522 27.8836H30.3427L25.3169 41.3522ZM28.9336 0.5L24.0023 13.9334H35.5481C38.4843 6.37187 40.817 0.5 40.817 0.5H28.9336ZM56.3171 0.5H45.9837V13.9334H64.0672L56.3171 0.5ZM76.4673 0.5L68.7172 13.9334H86.284V0.5H76.4673ZM45.9837 41.4225L56.3171 41.4423V27.8836H45.9837V41.4225ZM86.284 41.4997L76.4673 41.4809V27.8836H86.284V41.4997ZM70.7839 27.8836H62.0005L66.6506 32.0169L70.7839 27.8836ZM97.1344 24.2679H94.5793L93.0435 21.8475C92.9287 21.6638 92.8185 21.4998 92.7129 21.3555C92.6073 21.2112 92.4994 21.0888 92.3892 20.9882C92.2836 20.8833 92.1711 20.8046 92.0517 20.7521C91.9369 20.6952 91.8107 20.6668 91.6729 20.6668H91.0738V24.2679H88.8492V14.8618H92.3754C94.7721 14.8618 95.9705 15.7145 95.9705 17.42C95.9705 17.7479 95.9176 18.0518 95.812 18.3317C95.7065 18.6072 95.5572 18.8564 95.3644 19.0795C95.1715 19.3025 94.9374 19.4949 94.6619 19.6567C94.391 19.8185 94.088 19.9453 93.7528 20.0371V20.0634C93.8997 20.1071 94.0421 20.1792 94.1798 20.2798C94.3176 20.376 94.4507 20.4897 94.5793 20.6209C94.7078 20.7521 94.8295 20.8942 94.9443 21.0473C95.0636 21.1959 95.1715 21.3424 95.268 21.4867L97.1344 24.2679ZM91.0738 16.4492V19.0663H92.0379C92.5154 19.0663 92.8988 18.9352 93.1881 18.6728C93.4819 18.406 93.6288 18.0759 93.6288 17.6823C93.6288 16.8602 93.1123 16.4492 92.0793 16.4492H91.0738ZM75.7024 24.2679H81.6253V22.5493H77.9269V20.3979H81.1569V18.6793H77.9269V16.5869H81.398V14.8618H75.7024V24.2679ZM68.7296 16.5869H65.9128V24.2679H63.6814V16.5869H60.8784V14.8618H68.7296V16.5869ZM48.9364 24.2679H54.818V22.5493H51.1609V14.8618H48.9364V24.2679ZM41.8689 14.8618V16.5017H41.0424V22.628H41.8689V24.2679H37.9915V22.628H38.8179V16.5017H37.9915V14.8618H41.8689ZM28.0581 16.5869H31.5429V14.8618H25.8335V24.2679H28.0581V20.6143H31.2605V18.8958H28.0581V16.5869Z" fill="white"/>
</svg>
