<svg width="147" height="52" viewBox="0 0 147 52" fill="none" xmlns="http://www.w3.org/2000/svg">
<path fill-rule="evenodd" clip-rule="evenodd" d="M0 0L6.20802 17.0375H20.8142L14.3097 0H0ZM147 0H119.031V10.4846H126.186V17.0375H139.845V10.4846H147V0ZM119.031 52C119.031 52 147 51.9303 147 51.7679V41.9386H139.845V34.7304H126.186V41.9386H119.031V52ZM31.8717 51.8125L18.8628 51.7679L12.6548 34.7304H38.1987L31.8717 51.8125ZM36.4248 0L30.2168 17.0375H44.7519C48.4483 7.44726 51.385 0 51.385 0H36.4248ZM70.8982 0H57.8894V17.0375H80.6549L70.8982 0ZM96.2655 0L86.5089 17.0375H108.624V0H96.2655ZM57.8894 51.9018L70.8982 51.9268V34.7304H57.8894V51.9018ZM108.624 51.9996L96.2655 51.9757V34.7304H108.624V51.9996ZM89.1106 34.7304H78.0531L83.9071 39.9727L89.1106 34.7304ZM122.283 30.1446H119.067L117.133 27.0749C116.989 26.8419 116.85 26.634 116.717 26.4509C116.584 26.2679 116.448 26.1126 116.31 25.9851C116.177 25.852 116.035 25.7521 115.885 25.6856C115.74 25.6135 115.581 25.5774 115.408 25.5774H114.654V30.1446H111.853V18.215H116.292C119.31 18.215 120.818 19.2965 120.818 21.4595C120.818 21.8754 120.752 22.2609 120.619 22.6158C120.486 22.9652 120.298 23.2813 120.055 23.5642C119.812 23.847 119.518 24.0911 119.171 24.2963C118.83 24.5015 118.448 24.6623 118.026 24.7788V24.8121C118.211 24.8675 118.391 24.959 118.564 25.0866C118.737 25.2086 118.905 25.3528 119.067 25.5192C119.229 25.6856 119.382 25.8658 119.526 26.0599C119.677 26.2485 119.812 26.4343 119.934 26.6173L122.283 30.1446ZM114.654 20.2282V23.5476H115.868C116.469 23.5476 116.951 23.3812 117.315 23.0484C117.685 22.7101 117.87 22.2914 117.87 21.7922C117.87 20.7496 117.22 20.2282 115.92 20.2282H114.654ZM95.3025 30.1446H102.759V27.965H98.103V25.2363H102.169V23.0567H98.103V20.4029H102.473V18.215H95.3025V30.1446ZM86.5244 20.4029H82.9783V30.1446H80.1692V20.4029H76.6404V18.215H86.5244V20.4029ZM61.6066 30.1446H69.0109V27.965H64.407V18.215H61.6066V30.1446ZM52.7092 18.215V20.2948H51.6687V28.0648H52.7092V30.1446H47.8278V28.0648H48.8683V20.2948H47.8278V18.215H52.7092ZM35.3226 20.4029H39.7097V18.215H32.5221V30.1446H35.3226V25.5109H39.3542V23.3313H35.3226V20.4029Z" fill="#0159BD"/>
</svg>
