<svg width="65" height="65" viewBox="0 0 65 65" fill="none" xmlns="http://www.w3.org/2000/svg">
<path d="M44.6875 39.5625V31.3125H43.3125V17.5625C44.0708 17.5625 44.6875 16.9458 44.6875 16.1875V14.8125C44.6875 14.0542 44.0708 13.4375 43.3125 13.4375H38.5V12.75C38.5 11.6129 37.5746 10.6875 36.4375 10.6875H29.5625C28.4254 10.6875 27.5 11.6129 27.5 12.75V13.4375H22.6875C21.9292 13.4375 21.3125 14.0542 21.3125 14.8125V16.1875C21.3125 16.9458 21.9292 17.5625 22.6875 17.5625V31.3125H21.3125V39.5625H19.9375V46.0346L24.4654 50.5625H25.4375V53.3125H40.5625V50.5625H41.5346L46.0625 46.0346V39.5625H44.6875ZM28.875 12.75C28.875 12.3705 29.1837 12.0625 29.5625 12.0625H36.4375C36.8163 12.0625 37.125 12.3705 37.125 12.75V13.4375H28.875V12.75ZM22.6868 14.8125H43.3125V16.1875H22.6875L22.6868 14.8125ZM24.0625 17.5625H25.4375V29.9375H26.8125V17.5625H30.9375V29.9375H32.3125V17.5625H36.4375V29.9375H37.8125V17.5625H41.9375V31.3125H40.5625V18.9375H39.1875V31.3125H35.0625V18.9375H33.6875V31.3125H29.5625V18.9375H28.1875V31.3125H24.0625V17.5625ZM22.6875 35.4375V34.0625V32.6875H43.3125V36.8125V38.1875V39.5625H22.6875V35.4375ZM44.6875 40.9375V42.3125V43.6875V45.0625H21.3125V40.9375H44.6875ZM39.1875 51.9375H26.8125V50.5625H39.1875V51.9375ZM40.9654 49.1875H25.0346L22.2846 46.4375H43.7154L40.9654 49.1875Z" fill="#EF8524"/>
</svg>
