<svg width="65" height="65" viewBox="0 0 65 65" fill="none" xmlns="http://www.w3.org/2000/svg">
<path d="M46.5534 44.8476C45.6788 44.2777 44.6444 43.7505 43.4771 43.28C42.982 43.0819 42.4455 42.8903 41.882 42.71C41.0716 42.2832 39.0761 41.1524 38.2166 40.3411V38.1366C40.9733 36.5606 42.8583 33.7327 43.4607 30.2713C45.0222 29.8241 46.3815 28.3585 46.3815 27.0103C46.3815 25.6456 45.3556 24.7399 43.6598 24.5523V23.5632C43.8898 23.1516 44.471 22.0378 44.8828 20.6082C45.5802 18.1868 45.447 16.0161 44.4973 14.3306C42.8783 11.4571 39.0101 10 33 10C27.1728 10 23.3816 11.4398 21.7316 14.2795C19.5958 17.9553 21.8426 22.6129 22.3403 23.5545V24.5523C20.6445 24.7399 19.6186 25.6456 19.6186 27.0103C19.6186 28.3585 20.9779 29.8242 22.5395 30.2714C23.1425 33.7341 25.0278 36.5618 27.7836 38.1367V40.3411C26.9235 41.1529 24.9262 42.2845 24.1169 42.7107C23.5369 42.8991 23.019 43.0893 22.5358 43.2912C21.4942 43.7099 20.5432 44.189 19.7126 44.7131C15.1955 47.5255 15.0851 50.8974 15.0826 51.0396L15.0825 54H50.9176V51.0475C50.9168 50.9095 50.8478 47.6366 46.5534 44.8476ZM45.0207 27.0103C45.0207 27.5661 44.4195 28.3228 43.6357 28.7404C43.6507 28.4715 43.6598 25.92 43.6598 25.92C44.8725 26.09 45.0207 26.7171 45.0207 27.0103ZM20.9794 27.0103C20.9794 26.7171 21.1276 26.09 22.3403 25.92C22.3403 25.92 22.3494 28.4716 22.3644 28.7404C21.5806 28.3227 20.9794 27.5661 20.9794 27.0103ZM22.9083 14.9632C24.2971 12.5729 27.6926 11.3608 33 11.3608C38.4792 11.3608 41.9477 12.5834 43.3095 14.9944C44.7647 17.5712 43.4377 20.9443 42.7504 22.3591L41.3918 21.3402H24.6083L23.2671 22.3461C22.6181 20.9097 21.4094 17.5427 22.9083 14.9632ZM23.8124 29.61C23.7385 29.0848 23.7011 28.5154 23.7011 27.9175V23.7217L25.0619 22.701H40.9382L42.299 23.7217V27.9175C42.299 28.5154 42.2615 29.0848 42.1875 29.6117C41.7196 32.9998 39.9103 35.7399 37.222 37.1301C35.9553 37.7894 34.5348 38.1237 33 38.1237C31.4653 38.1237 30.0448 37.7894 28.7765 37.1292C26.0899 35.7399 24.2806 32.9998 23.8124 29.61ZM36.8557 38.7859V40.3565C36.3903 40.843 34.9155 42.2062 33 42.2062C31.097 42.2062 29.612 40.8404 29.1444 40.3551V38.7858C30.3403 39.2492 31.6323 39.4845 33 39.4845C34.368 39.4845 35.6604 39.2491 36.8557 38.7859ZM27.3299 52.6392H16.4433V51.0644C16.4469 51.0005 16.4951 50.3227 16.9715 49.387C17.4075 48.5306 18.297 47.2864 20.0819 46.0942L27.3299 50.5258V52.6392ZM30.0516 52.6392H28.6908V49.7628L21.4055 45.3084C21.8293 45.0854 22.2786 44.8738 22.7504 44.675L30.0516 48.7303V52.6392ZM34.5877 52.6392H31.4124V47.9295L24.4175 44.0443C24.4746 44.0254 27.172 42.6378 28.4409 41.5748C29.2253 42.3132 30.8705 43.567 33 43.567C35.1296 43.567 36.7748 42.3132 37.5592 41.5748C38.8281 42.6379 41.5265 44.0261 41.5837 44.0446L34.5877 47.9295V52.6392ZM37.7629 52.6392H35.9485V48.7303L43.2673 44.6662C43.8381 44.9063 44.3718 45.1601 44.8628 45.4262L37.7629 49.7626V52.6392ZM49.5567 52.6392H39.1238V50.5261L46.1638 46.2261C49.4297 48.504 49.5525 50.9152 49.5567 51.0584V52.6392Z" fill="#EF8524"/>
<path d="M33 31.3196H34.8145V29.9588H33.6805V27.0103H32.3196V30.6392C32.3196 31.0149 32.6243 31.3196 33 31.3196Z" fill="#EF8524"/>
</svg>
