<svg width="65" height="65" viewBox="0 0 65 65" fill="none" xmlns="http://www.w3.org/2000/svg">
<path d="M53 29.5C53 27.4288 51.3206 25.75 49.25 25.75H38.625L39.875 14.5C40.0056 13.1325 39.0706 12 37.6887 12H35.1881C33.625 12 32.9744 13.0938 32.375 14.5L27.375 25.75C26.0281 28.9806 24.25 29.5 23 29.5C22.375 29.5 21.75 29.5 21.75 29.5V28.25C21.75 26.8675 20.6319 25.75 19.25 25.75H15.5C14.1181 25.75 13 26.8675 13 28.25V49.5C13 50.8812 14.1181 52 15.5 52H19.25C20.6319 52 21.75 50.8812 21.75 49.5V48.25C22.375 48.25 24.02 48.2825 25.6312 49.9356C27.5775 51.9338 29.9019 52 31.125 52H45.5C47.5706 52 49.25 50.32 49.25 48.25C49.25 47.1681 48.7894 46.195 48.0563 45.5106C49.4819 44.9806 50.5 43.6106 50.5 42C50.5 40.9181 50.0394 39.945 49.3063 39.2606C50.7319 38.7306 51.75 37.3606 51.75 35.75C51.75 34.6681 51.2894 33.695 50.5563 33.0106C51.9819 32.4806 53 31.1106 53 29.5ZM20.5 49.5C20.5 50.19 19.94 50.75 19.25 50.75H15.5C14.81 50.75 14.25 50.19 14.25 49.5V28.25C14.25 27.5594 14.81 27 15.5 27H19.25C19.94 27 20.5 27.5594 20.5 28.25V49.5ZM49.25 32H43C42.6544 32 42.375 32.2787 42.375 32.625C42.375 32.97 42.6544 33.25 43 33.25H48C49.3806 33.25 50.5 34.3687 50.5 35.75C50.5 37.1306 49.3806 38.25 48 38.25H41.75C41.4044 38.25 41.125 38.5287 41.125 38.875C41.125 39.22 41.4044 39.5 41.75 39.5H46.75C48.1306 39.5 49.25 40.6187 49.25 42C49.25 43.3806 48.1306 44.5 46.75 44.5H40.5C40.1544 44.5 39.875 44.7788 39.875 45.125C39.875 45.47 40.1544 45.75 40.5 45.75H45.5C46.8806 45.75 48 46.8688 48 48.25C48 49.6306 46.8806 50.75 45.5 50.75H31.125C30.5 50.75 28.1906 50.7712 26.5262 49.0631C24.5825 47.0681 23.07 47.0019 21.75 47V30.75H23C25.5 30.75 27.1062 29.7681 28.7812 25.75L33.625 14.5C33.9506 13.81 34.3412 13.25 35.0319 13.25H37.375C38.065 13.25 38.7038 13.7713 38.625 14.5L37.3812 25.75C37.2987 26.7956 37.9525 27 38.625 27H49.25C50.6306 27 51.75 28.1187 51.75 29.5C51.75 30.8806 50.6306 32 49.25 32Z" fill="#EF8524"/>
<path d="M17 46C15.8953 46 15 46.8947 15 48C15 49.104 15.8953 50 17 50C18.1047 50 19 49.104 19 48C19 46.8947 18.1047 46 17 46ZM17 48.6667C16.6313 48.6667 16.3333 48.3673 16.3333 48C16.3333 47.6313 16.6313 47.3333 17 47.3333C17.3687 47.3333 17.6667 47.6313 17.6667 48C17.6667 48.3673 17.3687 48.6667 17 48.6667Z" fill="#EF8524"/>
</svg>
